<?xml version="1.0" encoding="UTF-8"?>
<svg width="29.8346012px" height="37.067319px" viewBox="0 0 29.8346012 37.067319" version="1.1" xmlns="http://www.w3.org/2000/svg" xmlns:xlink="http://www.w3.org/1999/xlink">
    <title>Vector-path</title>
    <g id="Page-1" stroke="none" stroke-width="1" fill="none" fill-rule="evenodd">
        <g id="Vector" transform="translate(14.9173, 18.5337) rotate(-180) translate(-14.9173, -18.5337)" fill="#FF385C" fill-rule="nonzero">
            <path d="M29.3864172,22.7101 C29.2429172,22.3073 29.0752172,21.9176 28.9157172,21.5565 C28.6701172,21.0011 28.4129172,20.4446 28.1641172,19.9067 L28.1444172,19.864 C25.9255172,15.0589 23.5439172,10.1881 21.0659172,5.38701004 L20.9607172,5.18316004 C20.7079172,4.69289004 20.4466172,4.18596004 20.1784172,3.68786004 C19.8604172,3.05750004 19.4745172,2.46360004 19.0276172,1.91668004 C18.5245172,1.31651004 17.8956172,0.833820042 17.1853172,0.502650042 C16.4750172,0.171486042 15.7005172,0 14.9165172,0 C14.1325172,0 13.3581172,0.171877042 12.6478172,0.503220042 C11.9376172,0.834570042 11.3088172,1.31742004 10.8059172,1.91771004 C10.3595172,2.46476004 9.9738272,3.05853004 9.6557172,3.68858004 C9.3852072,4.19115004 9.1214472,4.70278004 8.8663972,5.19757004 L8.7687172,5.38696004 C6.2906072,10.1884 3.9090272,15.0592 1.6901472,19.8639 L1.6578172,19.9338 C1.4133372,20.463 1.1605672,21.0102 0.919073203,21.5563 C0.759490203,21.9171 0.592009203,22.3065 0.448355203,22.7103 C0.036906303,23.8104 -0.094203997,24.9953 0.066809803,26.1585 C0.237562203,27.334 0.713008203,28.4447 1.4460572,29.3804 C2.1791072,30.3161 2.98660336,36.6033682 4.08840336,37.0521682 C4.92061336,37.3888682 5.9681772,32.002 6.8661572,32 C7.7641372,31.998 7.4300772,31.9835 7.7102672,31.9509 C8.8459972,31.8062 9.9413572,31.4366 10.9321172,30.8639 C12.2317172,30.1338 13.5152172,29.0638 14.9173172,27.5348 C16.3194172,29.0638 17.6029172,30.1338 18.9025172,30.8639 C19.8932172,31.4367 20.9886172,31.8062 22.1243172,31.9509 C22.4045172,31.9835 22.6864172,31.9999 22.9685172,32 C23.8664172,32.002 24.5983834,37.3888682 25.4305834,37.0521682 C26.5323834,36.6033682 27.6554172,30.3161 28.3885172,29.3804 C29.1216172,28.4447 29.5971172,27.3341 29.7679172,26.1585 C29.9287172,24.9952 29.7976172,23.8103 29.3864172,22.7101 Z M14.9173172,24.377 C13.1816172,22.1769 12.0678172,20.1338 11.6770172,18.421 C11.5169172,17.7792 11.4791172,17.1131 11.5656172,16.4573 C11.6339172,15.9766 11.8105172,15.5176 12.0821172,15.1148 C12.4163172,14.6814 12.8458172,14.3304 13.3374172,14.0889 C13.8290172,13.8475 14.3696172,13.7219 14.9175172,13.7219 C15.4655172,13.7219 16.0060172,13.8476 16.4976172,14.0892 C16.9892172,14.3307 17.4186172,14.6817 17.7528172,15.1151 C18.0244172,15.5181 18.2010172,15.9771 18.2693172,16.4579 C18.3556172,17.114 18.3177172,17.7803 18.1573172,18.4223 C17.7661172,20.1349 16.6526172,22.1774 14.9173172,24.377 Z M27.7406172,25.8689 C27.6212172,26.6908 27.2887172,27.4674 26.7762172,28.1216 C26.2636172,28.7759 25.5887172,29.2852 24.8183172,29.599 C24.0393172,29.9111 23.1939172,30.0217 22.3607172,29.9205 C21.4946172,29.8089 20.6599172,29.5239 19.9069172,29.0824 C18.7501172,28.4325 17.5791172,27.4348 16.2614172,25.9712 C18.3591172,23.3846 19.6690172,21.0005 20.1540172,18.877 C20.3723172,17.984 20.4196172,17.0579 20.2935172,16.1475 C20.1791172,15.3632 19.8879172,14.615 19.4419172,13.9593 C18.9194172,13.2519 18.2378172,12.6768 17.4520172,12.2805 C16.6661172,11.8842 15.7980172,11.6777 14.9175172,11.6777 C14.0371172,11.6777 13.1689172,11.8841 12.3830172,12.2803 C11.5971172,12.6765 10.9155172,13.2515 10.3930172,13.9589 C9.9470672,14.6144 9.6559072,15.3624 9.5413972,16.1465 C9.4152372,17.0566 9.4622972,17.9822 9.6801072,18.8749 C10.1648172,20.9993 11.4748172,23.384 13.5732172,25.9714 C12.2555172,27.4348 11.0845172,28.4325 9.9276872,29.0825 C9.1746772,29.5239 8.3400672,29.809 7.4739472,29.9205 C6.6406472,30.0217 5.7952472,29.9111 5.0161972,29.599 C4.2458072,29.2852 3.5709172,28.7759 3.0583772,28.1217 C2.5458472,27.4674 2.2134472,26.6908 2.0941072,25.8689 C1.9793172,25.0334 2.0770072,24.1825 2.3781772,23.3946 C2.4926572,23.0728 2.6266272,22.757 2.7925972,22.3818 C3.0273972,21.851 3.2765672,21.3115 3.5175872,20.7898 L3.5499572,20.7197 C5.7564272,15.9419 8.1248072,11.0982 10.5894172,6.32294004 L10.6875172,6.13283004 C10.9384172,5.64601004 11.1979172,5.14267004 11.4597172,4.65630004 C11.7101172,4.15501004 12.0132172,3.68171004 12.3639172,3.24440004 C12.6746172,2.86903004 13.0646172,2.56681004 13.5059172,2.35934004 C13.9473172,2.15186004 14.4291172,2.04422003 14.9169172,2.04422003 C15.4047172,2.04422003 15.8866172,2.15171004 16.3279172,2.35911004 C16.7693172,2.56651004 17.1593172,2.86867004 17.4701172,3.24399004 C17.8210172,3.68097004 18.1242172,4.15411004 18.3744172,4.65538004 C18.6338172,5.13742004 18.8910172,5.63623004 19.1398172,6.11858004 L19.2452172,6.32315004 C21.7097172,11.0979 24.0780172,15.9415 26.2847172,20.7201 L26.3046172,20.7631 C26.5498172,21.2936 26.8033172,21.8419 27.0420172,22.382 C27.2082172,22.7577 27.3424172,23.0738 27.4566172,23.3944 C27.7576172,24.1824 27.8553172,25.0333 27.7406172,25.8689 Z"></path>
        </g>
    </g>
</svg>